HIERARCHY
ROOT mixamorig:Hips
{
	OFFSET 0.000000 104.274902 0.000000
	CHANNELS 6 Xposition Yposition Zposition Xrotation Yrotation Zrotation
	JOINT mixamorig:Spine
	{
		OFFSET 0.000000 10.181549 0.131524
		CHANNELS 6 Xposition Yposition Zposition Xrotation Yrotation Zrotation
		JOINT mixamorig:Spine1
		{
			OFFSET 0.000000 9.893990 -1.470706
			CHANNELS 3 Xrotation Yrotation Zrotation
			JOINT mixamorig:Spine2
			{
				OFFSET 0.000000 9.220787 -1.370637
				CHANNELS 3 Xrotation Yrotation Zrotation
				JOINT mixamorig:Neck
				{
					OFFSET 0.000000 16.740372 -2.049022
					CHANNELS 6 Xposition Yposition Zposition Xrotation Yrotation Zrotation
					JOINT mixamorig:Head
					{
						OFFSET 0.000000 9.617859 1.684976
						CHANNELS 6 Xposition Yposition Zposition Xrotation Yrotation Zrotation
						JOINT mixamorig:HeadTop_End
						{
							OFFSET 0.000000 22.037384 7.501072
							CHANNELS 6 Xposition Yposition Zposition Xrotation Yrotation Zrotation
							End Site
							{
								OFFSET 0.000000 23.106567 -2.828246
							}
						}
					}
				}
				JOINT mixamorig:RightShoulder
				{
					OFFSET -4.570000 11.014877 -2.160840
					CHANNELS 6 Xposition Yposition Zposition Xrotation Yrotation Zrotation
					JOINT mixamorig:RightArm
					{
						OFFSET -10.592867 -0.524796 -2.232105
						CHANNELS 3 Xrotation Yrotation Zrotation
						JOINT mixamorig:RightForeArm
						{
							OFFSET -27.841497 0.000000 -0.000002
							CHANNELS 3 Xrotation Yrotation Zrotation
							JOINT mixamorig:RightHand
							{
								OFFSET -28.328812 0.000000 -0.000001
								CHANNELS 3 Xrotation Yrotation Zrotation
								JOINT mixamorig:RightHandThumb1
								{
									OFFSET -2.464798 -1.573990 2.681911
									CHANNELS 6 Xposition Yposition Zposition Xrotation Yrotation Zrotation
									JOINT mixamorig:RightHandThumb2
									{
										OFFSET -3.244781 -1.873383 1.873376
										CHANNELS 3 Xrotation Yrotation Zrotation
										JOINT mixamorig:RightHandThumb3
										{
											OFFSET -2.646263 -1.527817 1.527818
											CHANNELS 6 Xposition Yposition Zposition Xrotation Yrotation Zrotation
											JOINT mixamorig:RightHandThumb4
											{
												OFFSET -1.994591 -1.151581 1.151575
												CHANNELS 6 Xposition Yposition Zposition Xrotation Yrotation Zrotation
												End Site
												{
													OFFSET -1.860176 -1.142715 1.365483
												}
											}
										}
									}
								}
								JOINT mixamorig:RightHandIndex1
								{
									OFFSET -9.108299 -0.517883 2.259803
									CHANNELS 6 Xposition Yposition Zposition Xrotation Yrotation Zrotation
									JOINT mixamorig:RightHandIndex2
									{
										OFFSET -3.699997 0.000000 0.000000
										CHANNELS 3 Xrotation Yrotation Zrotation
										JOINT mixamorig:RightHandIndex3
										{
											OFFSET -2.850006 0.000000 0.000000
											CHANNELS 3 Xrotation Yrotation Zrotation
											JOINT mixamorig:RightHandIndex4
											{
												OFFSET -2.772194 0.000000 0.000000
												CHANNELS 3 Xrotation Yrotation Zrotation
												End Site
												{
													OFFSET -2.772202 0.000000 -0.000484
												}
											}
										}
									}
								}
								JOINT mixamorig:RightHandMiddle1
								{
									OFFSET -9.532501 0.000000 -0.000000
									CHANNELS 6 Xposition Yposition Zposition Xrotation Yrotation Zrotation
									JOINT mixamorig:RightHandMiddle2
									{
										OFFSET -3.699997 0.000000 0.000000
										CHANNELS 3 Xrotation Yrotation Zrotation
										JOINT mixamorig:RightHandMiddle3
										{
											OFFSET -2.949997 0.000000 0.000000
											CHANNELS 3 Xrotation Yrotation Zrotation
											JOINT mixamorig:RightHandMiddle4
											{
												OFFSET -2.946594 0.000000 0.000000
												CHANNELS 3 Xrotation Yrotation Zrotation
												End Site
												{
													OFFSET -2.946602 0.000000 -0.000982
												}
											}
										}
									}
								}
								JOINT mixamorig:RightHandRing1
								{
									OFFSET -9.103600 -0.043106 -1.865100
									CHANNELS 6 Xposition Yposition Zposition Xrotation Yrotation Zrotation
									JOINT mixamorig:RightHandRing2
									{
										OFFSET -3.379303 0.000000 0.000000
										CHANNELS 3 Xrotation Yrotation Zrotation
										JOINT mixamorig:RightHandRing3
										{
											OFFSET -2.889694 0.000000 0.000000
											CHANNELS 3 Xrotation Yrotation Zrotation
											JOINT mixamorig:RightHandRing4
											{
												OFFSET -2.638802 0.000000 0.000000
												CHANNELS 3 Xrotation Yrotation Zrotation
												End Site
												{
													OFFSET -2.638802 0.000000 0.004218
												}
											}
										}
									}
								}
								JOINT mixamorig:RightHandPinky1
								{
									OFFSET -8.076698 -0.486725 -3.806299
									CHANNELS 6 Xposition Yposition Zposition Xrotation Yrotation Zrotation
									JOINT mixamorig:RightHandPinky2
									{
										OFFSET -3.600006 0.000000 0.000000
										CHANNELS 3 Xrotation Yrotation Zrotation
										JOINT mixamorig:RightHandPinky3
										{
											OFFSET -2.099998 0.000000 0.000000
											CHANNELS 3 Xrotation Yrotation Zrotation
											JOINT mixamorig:RightHandPinky4
											{
												OFFSET -2.115791 0.000000 0.000000
												CHANNELS 3 Xrotation Yrotation Zrotation
												End Site
												{
													OFFSET -2.115799 0.000000 0.000174
												}
											}
										}
									}
								}
							}
						}
					}
				}
				JOINT mixamorig:LeftShoulder
				{
					OFFSET 4.570400 11.014679 -2.160816
					CHANNELS 6 Xposition Yposition Zposition Xrotation Yrotation Zrotation
					JOINT mixamorig:LeftArm
					{
						OFFSET 10.592373 -0.524597 -2.232116
						CHANNELS 3 Xrotation Yrotation Zrotation
						JOINT mixamorig:LeftForeArm
						{
							OFFSET 27.841488 0.000000 0.000001
							CHANNELS 3 Xrotation Yrotation Zrotation
							JOINT mixamorig:LeftHand
							{
								OFFSET 28.328808 0.000000 -0.000000
								CHANNELS 3 Xrotation Yrotation Zrotation
								JOINT mixamorig:LeftHandThumb1
								{
									OFFSET 2.466103 -1.576202 2.681698
									CHANNELS 6 Xposition Yposition Zposition Xrotation Yrotation Zrotation
									JOINT mixamorig:LeftHandThumb2
									{
										OFFSET 3.243317 -1.872528 1.872530
										CHANNELS 3 Xrotation Yrotation Zrotation
										JOINT mixamorig:LeftHandThumb3
										{
											OFFSET 2.647881 -1.528763 1.528754
											CHANNELS 6 Xposition Yposition Zposition Xrotation Yrotation Zrotation
											JOINT mixamorig:LeftHandThumb4
											{
												OFFSET 1.998924 -1.154083 1.154080
												CHANNELS 6 Xposition Yposition Zposition Xrotation Yrotation Zrotation
												End Site
												{
													OFFSET 1.884041 -1.149155 1.337651
												}
											}
										}
									}
								}
								JOINT mixamorig:LeftHandIndex1
								{
									OFFSET 9.109299 -0.518005 2.259900
									CHANNELS 6 Xposition Yposition Zposition Xrotation Yrotation Zrotation
									JOINT mixamorig:LeftHandIndex2
									{
										OFFSET 3.699997 0.000000 0.000000
										CHANNELS 3 Xrotation Yrotation Zrotation
										JOINT mixamorig:LeftHandIndex3
										{
											OFFSET 2.850006 0.000000 0.000000
											CHANNELS 3 Xrotation Yrotation Zrotation
											JOINT mixamorig:LeftHandIndex4
											{
												OFFSET 2.774895 0.000000 0.000000
												CHANNELS 3 Xrotation Yrotation Zrotation
												End Site
												{
													OFFSET 2.774902 0.000000 -0.000072
												}
											}
										}
									}
								}
								JOINT mixamorig:LeftHandMiddle1
								{
									OFFSET 9.533401 0.000000 0.000000
									CHANNELS 6 Xposition Yposition Zposition Xrotation Yrotation Zrotation
									JOINT mixamorig:LeftHandMiddle2
									{
										OFFSET 3.699997 0.000000 0.000000
										CHANNELS 3 Xrotation Yrotation Zrotation
										JOINT mixamorig:LeftHandMiddle3
										{
											OFFSET 2.949997 0.000000 0.000000
											CHANNELS 3 Xrotation Yrotation Zrotation
											JOINT mixamorig:LeftHandMiddle4
											{
												OFFSET 2.952896 0.000000 0.000000
												CHANNELS 3 Xrotation Yrotation Zrotation
												End Site
												{
													OFFSET 2.952904 0.000000 0.000165
												}
											}
										}
									}
								}
								JOINT mixamorig:LeftHandRing1
								{
									OFFSET 9.104500 -0.042999 -1.865101
									CHANNELS 6 Xposition Yposition Zposition Xrotation Yrotation Zrotation
									JOINT mixamorig:LeftHandRing2
									{
										OFFSET 3.149994 0.000000 0.000000
										CHANNELS 3 Xrotation Yrotation Zrotation
										JOINT mixamorig:LeftHandRing3
										{
											OFFSET 2.950005 0.000000 0.000000
											CHANNELS 3 Xrotation Yrotation Zrotation
											JOINT mixamorig:LeftHandRing4
											{
												OFFSET 2.644302 0.000000 0.000000
												CHANNELS 3 Xrotation Yrotation Zrotation
												End Site
												{
													OFFSET 2.644302 0.000000 0.000083
												}
											}
										}
									}
								}
								JOINT mixamorig:LeftHandPinky1
								{
									OFFSET 8.077805 -0.486893 -3.806302
									CHANNELS 6 Xposition Yposition Zposition Xrotation Yrotation Zrotation
									JOINT mixamorig:LeftHandPinky2
									{
										OFFSET 3.600006 0.000000 0.000000
										CHANNELS 3 Xrotation Yrotation Zrotation
										JOINT mixamorig:LeftHandPinky3
										{
											OFFSET 2.099998 0.000000 0.000000
											CHANNELS 3 Xrotation Yrotation Zrotation
											JOINT mixamorig:LeftHandPinky4
											{
												OFFSET 2.125496 0.000000 0.000000
												CHANNELS 3 Xrotation Yrotation Zrotation
												End Site
												{
													OFFSET 2.125504 0.000000 -0.001254
												}
											}
										}
									}
								}
							}
						}
					}
				}
			}
		}
	}
	JOINT mixamorig:RightUpLeg
	{
		OFFSET -8.207800 -6.751701 -1.599544
		CHANNELS 6 Xposition Yposition Zposition Xrotation Yrotation Zrotation
		JOINT mixamorig:RightLeg
		{
			OFFSET 0.000004 -44.370152 0.345934
			CHANNELS 3 Xrotation Yrotation Zrotation
			JOINT mixamorig:RightFoot
			{
				OFFSET 0.000004 -44.423664 -3.043535
				CHANNELS 3 Xrotation Yrotation Zrotation
				JOINT mixamorig:RightToeBase
				{
					OFFSET 0.000001 -8.728691 10.710592
					CHANNELS 3 Xrotation Yrotation Zrotation
					JOINT mixamorig:RightToe_End
					{
						OFFSET 0.000000 -0.000665 9.278101
						CHANNELS 3 Xrotation Yrotation Zrotation
						End Site
						{
							OFFSET 0.000000 -0.000665 9.278103
						}
					}
				}
			}
		}
	}
	JOINT mixamorig:LeftUpLeg
	{
		OFFSET 8.207800 -6.751701 -1.599544
		CHANNELS 6 Xposition Yposition Zposition Xrotation Yrotation Zrotation
		JOINT mixamorig:LeftLeg
		{
			OFFSET 0.000004 -44.370037 0.346940
			CHANNELS 3 Xrotation Yrotation Zrotation
			JOINT mixamorig:LeftFoot
			{
				OFFSET 0.000004 -44.423611 -3.044388
				CHANNELS 3 Xrotation Yrotation Zrotation
				JOINT mixamorig:LeftToeBase
				{
					OFFSET 0.000001 -8.728690 10.710592
					CHANNELS 3 Xrotation Yrotation Zrotation
					JOINT mixamorig:LeftToe_End
					{
						OFFSET 0.000000 -0.000680 9.278101
						CHANNELS 3 Xrotation Yrotation Zrotation
						End Site
						{
							OFFSET 0.000000 -0.000680 9.278101
						}
					}
				}
			}
		}
	}
}
MOTION
Frames: 4
Frame Time: 0.033333
-0.556960 97.729797 -0.223974 -1.495644 6.163124 3.440053 0.000000 10.181569 0.131523 5.550274 -0.000943 -0.940650 11.100319 0.009741 -0.734988 11.100320 0.009740 -0.734989 -0.000001 16.740387 -2.049021 -10.509797 -1.525006 -3.378781 0.000001 9.617856 1.684983 -17.396608 -3.946747 2.467865 -0.000000 22.037384 7.501074 -0.000001 -0.000000 -0.000000 -4.570000 11.014862 -2.160843 -3.413139 0.044930 -0.357020 -8.521160 -11.378079 60.672598 -0.093848 56.128896 -0.117805 33.242384 -12.830463 -17.731888 -2.464796 -1.573989 2.681914 -4.978412 12.391651 9.407276 -1.210151 -0.220446 -2.121002 -2.646266 -1.527833 1.527821 0.000009 0.000004 -0.000005 -1.994583 -1.151580 1.151571 0.000003 0.000002 -0.000000 -9.108306 -0.517864 2.259806 10.258605 13.576569 6.067465 0.012517 -0.647892 4.076602 0.000000 -0.000005 -0.000004 0.000000 0.000000 -0.000001 -9.532497 0.000000 0.000002 -1.738480 -1.670989 3.393800 -0.252714 0.798102 21.448251 -0.000000 -0.000002 0.000002 -0.000000 -0.000002 0.000003 -9.103603 -0.043109 -1.865098 -0.824281 -13.700973 18.348830 -0.242206 2.213621 16.221196 -0.000006 -0.000002 -0.000002 0.000001 0.000000 0.000002 -8.076706 -0.486710 -3.806300 -4.380757 -23.900586 30.060308 -0.233922 5.125285 12.870313 -0.000015 -0.000006 0.000003 0.000002 -0.000000 0.000000 4.570401 11.014679 -2.160813 9.458453 -6.444334 -14.996447 -9.688681 10.601557 -35.774509 0.001808 -55.255937 0.168422 23.869133 -12.510097 16.445989 2.466100 -1.576227 2.681700 7.350948 -14.484161 -10.934841 -1.067070 0.182868 1.946093 2.647886 -1.528780 1.528756 -0.000010 -0.000001 -0.000012 1.998921 -1.154054 1.154084 0.000001 -0.000000 -0.000002 9.109299 -0.518017 2.259897 5.776094 -9.584526 -10.641348 0.033752 0.666541 -10.636468 -0.000001 -0.000001 0.000001 0.000002 -0.000002 -0.000000 9.533401 -0.000013 -0.000004 1.641869 7.127206 -4.239655 -0.187970 -0.789322 -15.969028 -0.000003 -0.000001 0.000002 -0.000003 0.000002 -0.000000 9.104504 -0.042998 -1.865105 1.677283 11.039967 -8.046050 -0.183092 -2.876837 -23.912170 -0.000001 -0.000001 0.000001 -0.000000 -0.000001 0.000002 8.077797 -0.486913 -3.806304 0.734551 28.047578 -16.218738 -0.849563 -6.142124 -29.148266 0.000002 0.000001 0.000000 0.000001 0.000001 0.000001 -8.207801 -6.751688 -1.599541 -20.427450 -12.680582 -19.222890 38.864029 0.091911 1.423439 -16.680485 -8.053824 8.785012 0.613171 -0.189147 0.450542 0.000000 0.000001 0.000000 8.207798 -6.751685 -1.599542 -21.682540 -5.859315 8.758195 27.239612 -0.188778 -1.009434 -4.553695 -2.768803 -12.622802 0.002986 -0.026200 0.062609 -0.000000 -0.000000 0.000000 
-0.553883 97.632751 -0.220395 -1.516440 6.148532 3.493760 -0.000000 10.181559 0.131523 5.558467 0.006461 -0.938568 11.116613 0.024601 -0.720861 11.116606 0.024601 -0.720860 0.000000 16.740387 -2.049016 -10.447498 -1.513489 -3.481280 -0.000000 9.617831 1.684982 -17.431643 -4.117834 2.753692 -0.000000 22.037354 7.501069 -0.000002 -0.000000 -0.000000 -4.570000 11.014904 -2.160834 -3.413919 0.065890 -0.353290 -8.734107 -11.488229 60.648043 -0.094469 55.937453 -0.117422 34.071460 -12.760259 -17.790908 -2.464804 -1.574002 2.681911 -4.978412 12.391650 9.407276 -1.210147 -0.220439 -2.121007 -2.646268 -1.527828 1.527816 0.000004 0.000012 -0.000001 -1.994579 -1.151587 1.151571 0.000001 0.000003 0.000001 -9.108294 -0.517905 2.259808 10.258606 13.576574 6.067463 0.012519 -0.647892 4.076606 0.000000 -0.000005 -0.000005 -0.000000 0.000001 0.000002 -9.532508 -0.000007 -0.000001 -1.738482 -1.670994 3.393801 -0.252710 0.798101 21.448254 -0.000000 -0.000000 0.000002 -0.000001 0.000000 0.000003 -9.103606 -0.043109 -1.865095 -0.824281 -13.700975 18.348832 -0.242209 2.213627 16.221201 -0.000005 -0.000001 -0.000005 0.000002 0.000002 -0.000001 -8.076706 -0.486726 -3.806298 -4.380759 -23.900586 30.060308 -0.233918 5.125283 12.870308 -0.000013 -0.000005 0.000003 0.000003 0.000001 -0.000000 4.570407 11.014695 -2.160816 9.465615 -6.453719 -14.920589 -9.577415 10.345390 -35.689880 0.001045 -55.186935 0.168154 24.488287 -12.441421 16.876129 2.466111 -1.576187 2.681705 8.156328 -13.650171 -11.310490 -1.067065 0.182875 1.946089 2.647887 -1.528782 1.528759 -0.000006 -0.000001 -0.000006 1.998909 -1.154068 1.154080 -0.000000 0.000001 -0.000000 9.109307 -0.518006 2.259896 5.776092 -9.584524 -10.641346 0.033757 0.666542 -10.636473 0.000003 -0.000001 0.000000 0.000004 -0.000002 -0.000000 9.533408 0.000033 0.000001 1.641868 7.127203 -4.239657 -0.187969 -0.789320 -15.969023 0.000001 0.000002 -0.000001 -0.000000 0.000002 -0.000001 9.104509 -0.042968 -1.865102 1.677279 11.039971 -8.046051 -0.183089 -2.876840 -23.912170 0.000000 0.000001 0.000000 -0.000001 0.000002 0.000001 8.077817 -0.486900 -3.806303 0.734551 28.047574 -16.218737 -0.849563 -6.142124 -29.148266 0.000001 0.000001 0.000001 0.000001 0.000001 0.000001 -8.207800 -6.751708 -1.599546 -20.624067 -12.700980 -19.386729 39.216026 0.133164 1.438251 -16.850917 -7.977611 8.784727 0.597912 -0.189111 0.450459 0.000000 -0.000002 -0.000000 8.207799 -6.751698 -1.599541 -21.899398 -5.737606 8.740250 27.665878 -0.193757 -1.024113 -4.756520 -2.885726 -12.603849 0.000607 -0.026202 0.062619 -0.000000 -0.000000 0.000000 
-0.542831 97.495201 -0.228920 -1.596714 6.053580 3.613045 -0.000000 10.181569 0.131525 5.573728 0.022488 -0.946111 11.146888 0.055911 -0.715140 11.146895 0.055909 -0.715140 -0.000000 16.740358 -2.049020 -10.337940 -1.427448 -3.736335 0.000002 9.617858 1.684982 -17.596707 -4.269100 3.482838 -0.000001 22.037354 7.501072 -0.000001 0.000000 -0.000000 -4.570002 11.014894 -2.160846 -3.414619 0.088646 -0.329353 -8.972443 -11.587819 60.520004 -0.094732 55.711258 -0.117591 35.691389 -12.619788 -17.817436 -2.464800 -1.573996 2.681908 -4.978407 12.391654 9.407272 -1.210144 -0.220443 -2.121009 -2.646263 -1.527825 1.527821 0.000006 0.000007 -0.000006 -1.994595 -1.151581 1.151568 0.000008 -0.000002 0.000005 -9.108315 -0.517873 2.259805 10.258607 13.576574 6.067462 0.012518 -0.647892 4.076609 0.000002 -0.000004 -0.000007 0.000001 0.000003 -0.000002 -9.532501 0.000008 -0.000000 -1.738479 -1.670989 3.393798 -0.252711 0.798103 21.448256 0.000000 -0.000000 0.000003 0.000003 0.000002 0.000002 -9.103602 -0.043091 -1.865099 -0.824282 -13.700974 18.348827 -0.242208 2.213625 16.221201 -0.000002 -0.000003 -0.000001 0.000002 0.000001 0.000005 -8.076710 -0.486710 -3.806295 -4.380758 -23.900586 30.060311 -0.233923 5.125284 12.870312 -0.000017 -0.000005 0.000003 -0.000004 -0.000001 0.000002 4.570397 11.014669 -2.160813 9.481307 -6.476685 -14.752155 -9.293275 9.774984 -35.530081 -0.003063 -54.583993 0.165457 24.880677 -12.266116 17.412193 2.466094 -1.576201 2.681704 9.669793 -12.130937 -11.834396 -1.067071 0.182871 1.946095 2.647878 -1.528763 1.528750 -0.000010 -0.000003 -0.000009 1.998918 -1.154058 1.154070 0.000002 0.000003 -0.000004 9.109301 -0.518025 2.259894 5.776095 -9.584529 -10.641346 0.033753 0.666544 -10.636469 0.000000 -0.000001 0.000001 0.000002 -0.000002 0.000001 9.533403 0.000019 0.000001 1.641866 7.127207 -4.239656 -0.187971 -0.789322 -15.969025 -0.000000 -0.000002 0.000001 -0.000002 -0.000001 0.000002 9.104509 -0.042984 -1.865102 1.677279 11.039971 -8.046055 -0.183093 -2.876836 -23.912168 0.000003 0.000000 0.000000 0.000000 -0.000000 0.000001 8.077797 -0.486898 -3.806304 0.734547 28.047578 -16.218737 -0.849560 -6.142124 -29.148263 -0.000002 -0.000001 -0.000000 0.000000 -0.000001 -0.000000 -8.207806 -6.751713 -1.599541 -20.886799 -12.690001 -19.665834 39.727406 0.208556 1.460669 -17.083985 -7.827868 8.783727 0.584960 -0.189065 0.450387 -0.000000 0.000002 -0.000000 8.207799 -6.751702 -1.599549 -22.146327 -5.458430 8.705467 28.256250 -0.195810 -1.043523 -5.036980 -3.070944 -12.565344 0.011491 -0.026186 0.062589 -0.000000 -0.000000 0.000000 
-0.498211 97.300026 -0.260178 -1.732330 5.741902 3.844002 0.000001 10.181525 0.131524 5.599487 0.053492 -0.975552 11.197917 0.116513 -0.734183 11.197924 0.116511 -0.734184 0.000000 16.740383 -2.049019 -10.268223 -1.218382 -4.065379 -0.000001 9.617853 1.684983 -17.773327 -3.993034 4.487036 -0.000001 22.037369 7.501073 -0.000002 0.000000 -0.000000 -4.569999 11.014897 -2.160840 -3.415532 0.123458 -0.277890 -9.261906 -11.628467 60.237979 -0.093930 55.572519 -0.119106 37.726587 -12.428126 -17.769295 -2.464806 -1.573994 2.681904 -4.978411 12.391653 9.407275 -1.210155 -0.220443 -2.121004 -2.646262 -1.527815 1.527821 0.000009 0.000009 -0.000004 -1.994579 -1.151583 1.151565 -0.000001 0.000003 0.000001 -9.108293 -0.517890 2.259799 10.258607 13.576574 6.067459 0.012519 -0.647887 4.076603 0.000002 -0.000005 -0.000006 0.000002 -0.000001 0.000000 -9.532502 0.000003 -0.000006 -1.738478 -1.670985 3.393799 -0.252714 0.798101 21.448254 -0.000000 -0.000001 0.000002 -0.000001 -0.000000 0.000002 -9.103593 -0.043110 -1.865104 -0.824278 -13.700962 18.348832 -0.242209 2.213623 16.221194 -0.000005 -0.000000 0.000001 -0.000001 -0.000001 0.000003 -8.076700 -0.486714 -3.806300 -4.380756 -23.900580 30.060308 -0.233922 5.125285 12.870314 -0.000018 -0.000005 0.000005 0.000002 0.000000 0.000002 4.570400 11.014692 -2.160809 9.505590 -6.503788 -14.495009 -8.726413 8.805381 -35.226154 -0.011247 -53.301471 0.159898 25.108726 -11.883809 18.055576 2.466101 -1.576192 2.681696 11.257992 -10.569061 -12.339008 -1.067073 0.182870 1.946093 2.647882 -1.528776 1.528757 -0.000006 -0.000004 -0.000010 1.998917 -1.154052 1.154082 0.000000 0.000004 0.000003 9.109296 -0.518017 2.259901 5.776094 -9.584522 -10.641344 0.033754 0.666544 -10.636471 0.000000 -0.000003 0.000001 0.000000 -0.000002 0.000002 9.533390 0.000009 0.000002 1.641869 7.127208 -4.239656 -0.187971 -0.789317 -15.969022 0.000002 0.000001 0.000001 -0.000000 0.000001 0.000001 9.104493 -0.042987 -1.865095 1.677281 11.039975 -8.046051 -0.183092 -2.876839 -23.912170 -0.000002 0.000000 0.000002 -0.000001 -0.000001 0.000001 8.077796 -0.486894 -3.806301 0.734548 28.047581 -16.218735 -0.849564 -6.142121 -29.148266 0.000001 0.000000 0.000001 0.000003 0.000000 -0.000000 -8.207799 -6.751724 -1.599540 -21.307887 -12.604402 -20.151905 40.457884 0.347048 1.494452 -17.378163 -7.494982 8.788270 0.578375 -0.189051 0.450350 -0.000000 -0.000001 -0.000000 8.207800 -6.751711 -1.599542 -22.444717 -4.872838 8.648921 29.080555 -0.186502 -1.068924 -5.437492 -3.342142 -12.489345 0.029724 -0.026157 0.062551 -0.000000 -0.000000 0.000000 
